<svg xmlns="http://www.w3.org/2000/svg" width="20" height="20" viewBox="0 0 20 20" fill="none">
<path d="M12.9128 12.8237C13.4367 12.9983 14.003 12.7152 14.1777 12.1912C14.3523 11.6673 14.0692 11.101 13.5452 10.9263L12.9128 12.8237ZM10.4165 10.9375H9.4165C9.4165 11.3679 9.69193 11.7501 10.1003 11.8862L10.4165 10.9375ZM11.4165 7.01739C11.4165 6.46511 10.9688 6.01739 10.4165 6.01739C9.86422 6.01739 9.4165 6.46511 9.4165 7.01739H11.4165ZM13.5452 10.9263L10.7327 9.98882L10.1003 11.8862L12.9128 12.8237L13.5452 10.9263ZM11.4165 10.9375V7.01739H9.4165V10.9375H11.4165ZM16.9165 10C16.9165 13.5899 14.0064 16.5 10.4165 16.5V18.5C15.1109 18.5 18.9165 14.6944 18.9165 10H16.9165ZM10.4165 16.5C6.82665 16.5 3.9165 13.5899 3.9165 10H1.9165C1.9165 14.6944 5.72208 18.5 10.4165 18.5V16.5ZM3.9165 10C3.9165 6.41015 6.82665 3.5 10.4165 3.5V1.5C5.72208 1.5 1.9165 5.30558 1.9165 10H3.9165ZM10.4165 3.5C14.0064 3.5 16.9165 6.41015 16.9165 10H18.9165C18.9165 5.30558 15.1109 1.5 10.4165 1.5V3.5Z" fill="#525252"/>
</svg>