<svg xmlns="http://www.w3.org/2000/svg" width="65" height="56" viewBox="0 0 65 56" fill="none">
<mask id="path-1-outside-1_775_950" maskUnits="userSpaceOnUse" x="-0.279297" y="-0.143066" width="66" height="56" fill="black">
<rect fill="white" x="-0.279297" y="-0.143066" width="66" height="56"/>
<path d="M10.8284 50.3142C12.692 51.7477 14.6512 52.799 16.5148 53.5635C21.7711 55.7139 27.8398 55.7616 33.2873 53.3724C36.6322 51.8433 38.018 50.4575 38.7347 49.8363C39.4037 49.1196 39.4037 48.9762 39.3081 48.8806C39.2126 48.7851 39.0692 48.7373 38.2569 49.2151C37.4445 49.693 35.9632 50.792 32.7616 52.0822C27.4575 54.0892 21.9145 53.8503 17.1838 51.8911C15.4635 51.1743 13.6955 50.1708 11.9753 48.8329C5.76323 43.911 1.98824 35.8832 2.75279 27.2819C3.6607 18.3462 8.91703 10.6528 17.6616 7.35566C22.249 5.53984 27.5531 5.53984 32.3316 7.26009C34.673 8.168 36.4411 8.93256 38.8781 10.844C40.7895 12.4209 42.4619 14.2367 43.7043 16.2914C43.7521 16.387 43.7999 16.4826 43.8477 16.5781C42.5575 17.3905 41.0284 18.3939 39.4037 19.493C37.6357 16.2914 34.6252 13.5199 30.9936 12.1819C21.1977 8.168 9.25152 14.9534 7.96133 27.6164C7.19678 36.361 12.1664 44.1022 18.9518 46.9215C25.2594 49.5018 31.567 47.6382 34.8642 44.1499C35.342 43.6243 35.2942 43.481 35.1987 43.3854C35.1031 43.2898 34.9597 43.242 34.3863 43.5765C32.7139 44.4366 27.2186 48.4984 19.6686 45.2968C13.6955 42.7164 9.25152 35.7398 9.92051 27.8553C11.0673 16.2914 21.6756 10.3183 30.3724 13.7588C33.7173 14.9534 36.4888 17.3905 38.1613 20.2576C38.1613 20.3053 38.2091 20.3053 38.2091 20.3531C36.68 21.4044 34.9597 22.5512 33.2873 23.6981C33.2395 23.5547 33.1439 23.4113 33.0483 23.2202C32.0926 21.3566 30.3246 19.7797 28.2699 18.9674C22.7268 16.5781 15.798 20.4487 15.0813 27.712C15.0335 28.4287 15.0335 29.1455 15.0813 29.8145C15.7503 35.931 20.7199 39.8971 25.5939 39.3715C26.7885 39.2759 27.6487 38.9414 28.3654 38.6069C29.7034 37.8901 30.229 37.3167 30.468 36.9822C30.7069 36.6477 30.6113 36.5522 30.5157 36.4088C30.4202 36.3132 30.3246 36.2177 29.9901 36.361C29.6556 36.5044 29.0344 36.8867 27.8398 37.3167C27.2186 37.5079 26.454 37.699 25.4983 37.7468C20.6721 37.9379 16.5148 33.1594 17.0404 27.8553C17.6139 21.8822 23.1091 18.7284 27.6964 20.4965C29.4645 21.1177 30.9458 22.3601 31.8537 23.8892C31.9493 24.0803 32.0449 24.2715 32.1404 24.4148C29.2256 26.374 28.1743 27.043 25.1161 29.0022C23.8259 29.8145 23.0613 30.3401 23.1569 30.4835C23.2047 30.5791 24.1126 30.2924 25.4983 29.6712C26.8841 29.05 28.7477 28.0943 30.7547 26.9952C31.3759 26.6607 31.9971 26.2784 32.6661 25.8962C32.7139 26.0395 32.7138 26.1351 32.7616 26.2784C33.4784 29.6234 33.1917 32.7772 31.0892 35.5009C30.6591 36.0743 30.4202 36.361 30.468 36.4088C30.5157 36.4566 30.8502 36.2655 31.3759 35.7398C33.3828 33.924 34.7208 30.6269 33.9563 26.0395C33.9085 25.7528 33.8607 25.4661 33.8129 25.1794C35.5809 24.1281 37.3968 23.0291 39.0214 21.9778C39.0692 22.1212 39.1648 22.2645 39.2126 22.4557C41.3629 28.2854 40.9806 36.3132 36.4411 41.7607C36.0588 42.2863 35.6765 42.6208 35.4854 42.8598C35.2464 43.0987 35.1509 43.242 35.1987 43.2898C35.1987 43.3376 35.3898 43.1942 35.6287 43.0031C35.9154 42.7642 36.2977 42.4775 36.7278 41.9996C41.2673 37.4601 42.1274 30.818 41.0284 24.5582C40.7895 23.1724 40.5983 22.4557 40.1683 21.261C41.8885 20.162 42.7964 19.5408 44.7078 18.2984C44.899 18.6807 45.0423 19.0629 45.1857 19.493C45.568 20.592 45.9024 21.6911 46.0936 22.8379C47.9094 31.5348 46.9537 40.0405 41.124 46.7303C40.5506 47.4471 40.0249 47.9249 39.7382 48.2594C39.4037 48.5939 39.2604 48.7851 39.2604 48.8329C39.2604 48.8806 39.4993 48.6895 39.8816 48.4028C40.2638 48.1161 40.8373 47.686 41.4585 46.9692C42.7487 45.6791 44.4689 43.5765 45.8069 40.6139C47.8138 36.2655 48.7695 30.1968 47.336 22.5512C47.1448 21.4044 46.8581 20.2098 46.4281 19.0152C46.2369 18.5373 46.0458 18.0117 45.8069 17.5338C46.7148 16.9604 47.4793 16.4348 48.1961 15.9569C49.2474 16.5303 50.5854 17.0082 51.7322 17.3427C52.1145 17.4382 52.5923 17.5816 53.1657 17.5816C53.7392 17.5338 54.217 17.3427 54.6471 17.1038C55.8895 16.4826 63.4872 12.1819 64.2996 10.3661C64.5385 9.84047 64.6341 9.36262 64.6819 8.93256C64.6819 8.69364 64.7297 8.55028 64.6819 8.168C64.6341 7.83351 64.5385 7.5468 64.3474 7.30788C64.204 7.11674 63.9651 6.9256 63.774 6.83003C63.6306 6.78225 63.5828 6.73446 63.535 6.73446H63.4872C63.3917 6.68668 63.3439 6.68668 63.2961 6.68668C63.0572 6.63889 62.8183 6.59111 62.6271 6.49554C61.9581 6.35218 60.9069 6.06547 60.2379 6.06547C60.2379 6.01769 60.2379 6.01769 60.2379 5.9699C60.2379 5.20535 59.9512 3.96294 59.8078 3.24617C59.7122 2.81611 59.76 3.00725 59.6167 2.38605C59.5689 2.14712 59.5211 1.86041 59.3778 1.62149C59.2822 1.38257 59.1388 1.23921 58.9477 1.09586C58.8043 0.952503 58.5654 0.904718 58.3265 0.856934C58.0876 0.856934 57.8964 0.856933 57.6575 0.952503C57.4186 1.04807 57.1797 1.19143 56.9407 1.38257C53.2135 4.34522 50.2986 6.39997 48.1961 7.83351C48.1483 7.8813 47.4793 8.31136 47.5271 8.26357C47.4793 8.31136 47.4793 8.45471 47.4793 8.5025C47.4316 8.69364 47.4316 8.83699 47.3838 9.02813L47.336 9.36262C47.0971 11.5607 47.1449 13.4721 47.2882 14.4756C46.6192 14.8579 45.8547 15.3357 44.9945 15.9091C44.9468 15.8136 44.899 15.7658 44.8512 15.6702C43.561 13.4721 41.8407 11.4652 39.786 9.7449C37.1101 7.5468 34.9119 6.68668 34.7208 6.59111C34.1474 6.3044 33.4784 6.06547 32.8572 5.82655C27.8398 3.86737 22.0101 3.81959 17.0404 5.73098C7.48349 9.17148 1.7971 17.5338 0.841402 27.0908C-0.0665088 36.5522 4.23412 45.1534 10.8284 50.3142ZM48.7217 9.60155L48.7695 9.31484L48.8173 9.21927C48.8173 9.17148 48.8651 9.17148 48.8651 9.17148H48.9129H48.9607C49.343 8.98035 49.6774 8.74142 50.0597 8.55028C52.9268 6.87781 55.316 5.20535 57.6097 3.34174L57.8009 3.19839C57.8486 3.1506 57.8486 3.1506 57.8486 3.1506H57.8964H57.9442C58.1354 3.72402 58.3265 4.34522 58.5176 4.91864C58.7566 5.58763 58.9477 6.01769 59.091 6.35218C59.2344 6.59111 59.33 6.73446 59.4733 6.83003C59.5211 6.97339 59.6167 7.06895 59.9034 7.26009C60.429 7.59459 61.4803 8.02465 62.1015 8.21579C62.2926 8.26357 62.4838 8.35914 62.7227 8.45471C62.7705 8.45471 62.8183 8.5025 62.866 8.5025H62.9138C62.9138 8.59807 62.866 9.26705 62.6749 9.60155C62.436 10.175 55.1727 15.1446 55.0771 15.1924C54.6948 15.4313 54.3604 15.6702 53.9781 15.9091C53.6436 16.1003 53.3569 16.2914 53.0702 16.2914C52.5445 16.387 51.6844 16.1481 50.9676 16.0047C48.8651 15.5746 49.1996 15.6224 48.9129 15.5746C50.1553 14.7145 51.0632 14.1411 51.6366 13.6633C52.9746 12.6598 52.879 12.4208 52.7357 12.1819C52.5923 11.943 52.4012 11.7519 50.9198 12.4686C50.2031 12.8031 49.2474 13.3288 47.8616 14.0933C48.0528 13.0898 48.2917 11.4652 48.7217 9.60155Z"/>
</mask>
<path d="M10.8284 50.3142C12.692 51.7477 14.6512 52.799 16.5148 53.5635C21.7711 55.7139 27.8398 55.7616 33.2873 53.3724C36.6322 51.8433 38.018 50.4575 38.7347 49.8363C39.4037 49.1196 39.4037 48.9762 39.3081 48.8806C39.2126 48.7851 39.0692 48.7373 38.2569 49.2151C37.4445 49.693 35.9632 50.792 32.7616 52.0822C27.4575 54.0892 21.9145 53.8503 17.1838 51.8911C15.4635 51.1743 13.6955 50.1708 11.9753 48.8329C5.76323 43.911 1.98824 35.8832 2.75279 27.2819C3.6607 18.3462 8.91703 10.6528 17.6616 7.35566C22.249 5.53984 27.5531 5.53984 32.3316 7.26009C34.673 8.168 36.4411 8.93256 38.8781 10.844C40.7895 12.4209 42.4619 14.2367 43.7043 16.2914C43.7521 16.387 43.7999 16.4826 43.8477 16.5781C42.5575 17.3905 41.0284 18.3939 39.4037 19.493C37.6357 16.2914 34.6252 13.5199 30.9936 12.1819C21.1977 8.168 9.25152 14.9534 7.96133 27.6164C7.19678 36.361 12.1664 44.1022 18.9518 46.9215C25.2594 49.5018 31.567 47.6382 34.8642 44.1499C35.342 43.6243 35.2942 43.481 35.1987 43.3854C35.1031 43.2898 34.9597 43.242 34.3863 43.5765C32.7139 44.4366 27.2186 48.4984 19.6686 45.2968C13.6955 42.7164 9.25152 35.7398 9.92051 27.8553C11.0673 16.2914 21.6756 10.3183 30.3724 13.7588C33.7173 14.9534 36.4888 17.3905 38.1613 20.2576C38.1613 20.3053 38.2091 20.3053 38.2091 20.3531C36.68 21.4044 34.9597 22.5512 33.2873 23.6981C33.2395 23.5547 33.1439 23.4113 33.0483 23.2202C32.0926 21.3566 30.3246 19.7797 28.2699 18.9674C22.7268 16.5781 15.798 20.4487 15.0813 27.712C15.0335 28.4287 15.0335 29.1455 15.0813 29.8145C15.7503 35.931 20.7199 39.8971 25.5939 39.3715C26.7885 39.2759 27.6487 38.9414 28.3654 38.6069C29.7034 37.8901 30.229 37.3167 30.468 36.9822C30.7069 36.6477 30.6113 36.5522 30.5157 36.4088C30.4202 36.3132 30.3246 36.2177 29.9901 36.361C29.6556 36.5044 29.0344 36.8867 27.8398 37.3167C27.2186 37.5079 26.454 37.699 25.4983 37.7468C20.6721 37.9379 16.5148 33.1594 17.0404 27.8553C17.6139 21.8822 23.1091 18.7284 27.6964 20.4965C29.4645 21.1177 30.9458 22.3601 31.8537 23.8892C31.9493 24.0803 32.0449 24.2715 32.1404 24.4148C29.2256 26.374 28.1743 27.043 25.1161 29.0022C23.8259 29.8145 23.0613 30.3401 23.1569 30.4835C23.2047 30.5791 24.1126 30.2924 25.4983 29.6712C26.8841 29.05 28.7477 28.0943 30.7547 26.9952C31.3759 26.6607 31.9971 26.2784 32.6661 25.8962C32.7139 26.0395 32.7138 26.1351 32.7616 26.2784C33.4784 29.6234 33.1917 32.7772 31.0892 35.5009C30.6591 36.0743 30.4202 36.361 30.468 36.4088C30.5157 36.4566 30.8502 36.2655 31.3759 35.7398C33.3828 33.924 34.7208 30.6269 33.9563 26.0395C33.9085 25.7528 33.8607 25.4661 33.8129 25.1794C35.5809 24.1281 37.3968 23.0291 39.0214 21.9778C39.0692 22.1212 39.1648 22.2645 39.2126 22.4557C41.3629 28.2854 40.9806 36.3132 36.4411 41.7607C36.0588 42.2863 35.6765 42.6208 35.4854 42.8598C35.2464 43.0987 35.1509 43.242 35.1987 43.2898C35.1987 43.3376 35.3898 43.1942 35.6287 43.0031C35.9154 42.7642 36.2977 42.4775 36.7278 41.9996C41.2673 37.4601 42.1274 30.818 41.0284 24.5582C40.7895 23.1724 40.5983 22.4557 40.1683 21.261C41.8885 20.162 42.7964 19.5408 44.7078 18.2984C44.899 18.6807 45.0423 19.0629 45.1857 19.493C45.568 20.592 45.9024 21.6911 46.0936 22.8379C47.9094 31.5348 46.9537 40.0405 41.124 46.7303C40.5506 47.4471 40.0249 47.9249 39.7382 48.2594C39.4037 48.5939 39.2604 48.7851 39.2604 48.8329C39.2604 48.8806 39.4993 48.6895 39.8816 48.4028C40.2638 48.1161 40.8373 47.686 41.4585 46.9692C42.7487 45.6791 44.4689 43.5765 45.8069 40.6139C47.8138 36.2655 48.7695 30.1968 47.336 22.5512C47.1448 21.4044 46.8581 20.2098 46.4281 19.0152C46.2369 18.5373 46.0458 18.0117 45.8069 17.5338C46.7148 16.9604 47.4793 16.4348 48.1961 15.9569C49.2474 16.5303 50.5854 17.0082 51.7322 17.3427C52.1145 17.4382 52.5923 17.5816 53.1657 17.5816C53.7392 17.5338 54.217 17.3427 54.6471 17.1038C55.8895 16.4826 63.4872 12.1819 64.2996 10.3661C64.5385 9.84047 64.6341 9.36262 64.6819 8.93256C64.6819 8.69364 64.7297 8.55028 64.6819 8.168C64.6341 7.83351 64.5385 7.5468 64.3474 7.30788C64.204 7.11674 63.9651 6.9256 63.774 6.83003C63.6306 6.78225 63.5828 6.73446 63.535 6.73446H63.4872C63.3917 6.68668 63.3439 6.68668 63.2961 6.68668C63.0572 6.63889 62.8183 6.59111 62.6271 6.49554C61.9581 6.35218 60.9069 6.06547 60.2379 6.06547C60.2379 6.01769 60.2379 6.01769 60.2379 5.9699C60.2379 5.20535 59.9512 3.96294 59.8078 3.24617C59.7122 2.81611 59.76 3.00725 59.6167 2.38605C59.5689 2.14712 59.5211 1.86041 59.3778 1.62149C59.2822 1.38257 59.1388 1.23921 58.9477 1.09586C58.8043 0.952503 58.5654 0.904718 58.3265 0.856934C58.0876 0.856934 57.8964 0.856933 57.6575 0.952503C57.4186 1.04807 57.1797 1.19143 56.9407 1.38257C53.2135 4.34522 50.2986 6.39997 48.1961 7.83351C48.1483 7.8813 47.4793 8.31136 47.5271 8.26357C47.4793 8.31136 47.4793 8.45471 47.4793 8.5025C47.4316 8.69364 47.4316 8.83699 47.3838 9.02813L47.336 9.36262C47.0971 11.5607 47.1449 13.4721 47.2882 14.4756C46.6192 14.8579 45.8547 15.3357 44.9945 15.9091C44.9468 15.8136 44.899 15.7658 44.8512 15.6702C43.561 13.4721 41.8407 11.4652 39.786 9.7449C37.1101 7.5468 34.9119 6.68668 34.7208 6.59111C34.1474 6.3044 33.4784 6.06547 32.8572 5.82655C27.8398 3.86737 22.0101 3.81959 17.0404 5.73098C7.48349 9.17148 1.7971 17.5338 0.841402 27.0908C-0.0665088 36.5522 4.23412 45.1534 10.8284 50.3142ZM48.7217 9.60155L48.7695 9.31484L48.8173 9.21927C48.8173 9.17148 48.8651 9.17148 48.8651 9.17148H48.9129H48.9607C49.343 8.98035 49.6774 8.74142 50.0597 8.55028C52.9268 6.87781 55.316 5.20535 57.6097 3.34174L57.8009 3.19839C57.8486 3.1506 57.8486 3.1506 57.8486 3.1506H57.8964H57.9442C58.1354 3.72402 58.3265 4.34522 58.5176 4.91864C58.7566 5.58763 58.9477 6.01769 59.091 6.35218C59.2344 6.59111 59.33 6.73446 59.4733 6.83003C59.5211 6.97339 59.6167 7.06895 59.9034 7.26009C60.429 7.59459 61.4803 8.02465 62.1015 8.21579C62.2926 8.26357 62.4838 8.35914 62.7227 8.45471C62.7705 8.45471 62.8183 8.5025 62.866 8.5025H62.9138C62.9138 8.59807 62.866 9.26705 62.6749 9.60155C62.436 10.175 55.1727 15.1446 55.0771 15.1924C54.6948 15.4313 54.3604 15.6702 53.9781 15.9091C53.6436 16.1003 53.3569 16.2914 53.0702 16.2914C52.5445 16.387 51.6844 16.1481 50.9676 16.0047C48.8651 15.5746 49.1996 15.6224 48.9129 15.5746C50.1553 14.7145 51.0632 14.1411 51.6366 13.6633C52.9746 12.6598 52.879 12.4208 52.7357 12.1819C52.5923 11.943 52.4012 11.7519 50.9198 12.4686C50.2031 12.8031 49.2474 13.3288 47.8616 14.0933C48.0528 13.0898 48.2917 11.4652 48.7217 9.60155Z" fill="black"/>
<path d="M10.8284 50.3142C12.692 51.7477 14.6512 52.799 16.5148 53.5635C21.7711 55.7139 27.8398 55.7616 33.2873 53.3724C36.6322 51.8433 38.018 50.4575 38.7347 49.8363C39.4037 49.1196 39.4037 48.9762 39.3081 48.8806C39.2126 48.7851 39.0692 48.7373 38.2569 49.2151C37.4445 49.693 35.9632 50.792 32.7616 52.0822C27.4575 54.0892 21.9145 53.8503 17.1838 51.8911C15.4635 51.1743 13.6955 50.1708 11.9753 48.8329C5.76323 43.911 1.98824 35.8832 2.75279 27.2819C3.6607 18.3462 8.91703 10.6528 17.6616 7.35566C22.249 5.53984 27.5531 5.53984 32.3316 7.26009C34.673 8.168 36.4411 8.93256 38.8781 10.844C40.7895 12.4209 42.4619 14.2367 43.7043 16.2914C43.7521 16.387 43.7999 16.4826 43.8477 16.5781C42.5575 17.3905 41.0284 18.3939 39.4037 19.493C37.6357 16.2914 34.6252 13.5199 30.9936 12.1819C21.1977 8.168 9.25152 14.9534 7.96133 27.6164C7.19678 36.361 12.1664 44.1022 18.9518 46.9215C25.2594 49.5018 31.567 47.6382 34.8642 44.1499C35.342 43.6243 35.2942 43.481 35.1987 43.3854C35.1031 43.2898 34.9597 43.242 34.3863 43.5765C32.7139 44.4366 27.2186 48.4984 19.6686 45.2968C13.6955 42.7164 9.25152 35.7398 9.92051 27.8553C11.0673 16.2914 21.6756 10.3183 30.3724 13.7588C33.7173 14.9534 36.4888 17.3905 38.1613 20.2576C38.1613 20.3053 38.2091 20.3053 38.2091 20.3531C36.68 21.4044 34.9597 22.5512 33.2873 23.6981C33.2395 23.5547 33.1439 23.4113 33.0483 23.2202C32.0926 21.3566 30.3246 19.7797 28.2699 18.9674C22.7268 16.5781 15.798 20.4487 15.0813 27.712C15.0335 28.4287 15.0335 29.1455 15.0813 29.8145C15.7503 35.931 20.7199 39.8971 25.5939 39.3715C26.7885 39.2759 27.6487 38.9414 28.3654 38.6069C29.7034 37.8901 30.229 37.3167 30.468 36.9822C30.7069 36.6477 30.6113 36.5522 30.5157 36.4088C30.4202 36.3132 30.3246 36.2177 29.9901 36.361C29.6556 36.5044 29.0344 36.8867 27.8398 37.3167C27.2186 37.5079 26.454 37.699 25.4983 37.7468C20.6721 37.9379 16.5148 33.1594 17.0404 27.8553C17.6139 21.8822 23.1091 18.7284 27.6964 20.4965C29.4645 21.1177 30.9458 22.3601 31.8537 23.8892C31.9493 24.0803 32.0449 24.2715 32.1404 24.4148C29.2256 26.374 28.1743 27.043 25.1161 29.0022C23.8259 29.8145 23.0613 30.3401 23.1569 30.4835C23.2047 30.5791 24.1126 30.2924 25.4983 29.6712C26.8841 29.05 28.7477 28.0943 30.7547 26.9952C31.3759 26.6607 31.9971 26.2784 32.6661 25.8962C32.7139 26.0395 32.7138 26.1351 32.7616 26.2784C33.4784 29.6234 33.1917 32.7772 31.0892 35.5009C30.6591 36.0743 30.4202 36.361 30.468 36.4088C30.5157 36.4566 30.8502 36.2655 31.3759 35.7398C33.3828 33.924 34.7208 30.6269 33.9563 26.0395C33.9085 25.7528 33.8607 25.4661 33.8129 25.1794C35.5809 24.1281 37.3968 23.0291 39.0214 21.9778C39.0692 22.1212 39.1648 22.2645 39.2126 22.4557C41.3629 28.2854 40.9806 36.3132 36.4411 41.7607C36.0588 42.2863 35.6765 42.6208 35.4854 42.8598C35.2464 43.0987 35.1509 43.242 35.1987 43.2898C35.1987 43.3376 35.3898 43.1942 35.6287 43.0031C35.9154 42.7642 36.2977 42.4775 36.7278 41.9996C41.2673 37.4601 42.1274 30.818 41.0284 24.5582C40.7895 23.1724 40.5983 22.4557 40.1683 21.261C41.8885 20.162 42.7964 19.5408 44.7078 18.2984C44.899 18.6807 45.0423 19.0629 45.1857 19.493C45.568 20.592 45.9024 21.6911 46.0936 22.8379C47.9094 31.5348 46.9537 40.0405 41.124 46.7303C40.5506 47.4471 40.0249 47.9249 39.7382 48.2594C39.4037 48.5939 39.2604 48.7851 39.2604 48.8329C39.2604 48.8806 39.4993 48.6895 39.8816 48.4028C40.2638 48.1161 40.8373 47.686 41.4585 46.9692C42.7487 45.6791 44.4689 43.5765 45.8069 40.6139C47.8138 36.2655 48.7695 30.1968 47.336 22.5512C47.1448 21.4044 46.8581 20.2098 46.4281 19.0152C46.2369 18.5373 46.0458 18.0117 45.8069 17.5338C46.7148 16.9604 47.4793 16.4348 48.1961 15.9569C49.2474 16.5303 50.5854 17.0082 51.7322 17.3427C52.1145 17.4382 52.5923 17.5816 53.1657 17.5816C53.7392 17.5338 54.217 17.3427 54.6471 17.1038C55.8895 16.4826 63.4872 12.1819 64.2996 10.3661C64.5385 9.84047 64.6341 9.36262 64.6819 8.93256C64.6819 8.69364 64.7297 8.55028 64.6819 8.168C64.6341 7.83351 64.5385 7.5468 64.3474 7.30788C64.204 7.11674 63.9651 6.9256 63.774 6.83003C63.6306 6.78225 63.5828 6.73446 63.535 6.73446H63.4872C63.3917 6.68668 63.3439 6.68668 63.2961 6.68668C63.0572 6.63889 62.8183 6.59111 62.6271 6.49554C61.9581 6.35218 60.9069 6.06547 60.2379 6.06547C60.2379 6.01769 60.2379 6.01769 60.2379 5.9699C60.2379 5.20535 59.9512 3.96294 59.8078 3.24617C59.7122 2.81611 59.76 3.00725 59.6167 2.38605C59.5689 2.14712 59.5211 1.86041 59.3778 1.62149C59.2822 1.38257 59.1388 1.23921 58.9477 1.09586C58.8043 0.952503 58.5654 0.904718 58.3265 0.856934C58.0876 0.856934 57.8964 0.856933 57.6575 0.952503C57.4186 1.04807 57.1797 1.19143 56.9407 1.38257C53.2135 4.34522 50.2986 6.39997 48.1961 7.83351C48.1483 7.8813 47.4793 8.31136 47.5271 8.26357C47.4793 8.31136 47.4793 8.45471 47.4793 8.5025C47.4316 8.69364 47.4316 8.83699 47.3838 9.02813L47.336 9.36262C47.0971 11.5607 47.1449 13.4721 47.2882 14.4756C46.6192 14.8579 45.8547 15.3357 44.9945 15.9091C44.9468 15.8136 44.899 15.7658 44.8512 15.6702C43.561 13.4721 41.8407 11.4652 39.786 9.7449C37.1101 7.5468 34.9119 6.68668 34.7208 6.59111C34.1474 6.3044 33.4784 6.06547 32.8572 5.82655C27.8398 3.86737 22.0101 3.81959 17.0404 5.73098C7.48349 9.17148 1.7971 17.5338 0.841402 27.0908C-0.0665088 36.5522 4.23412 45.1534 10.8284 50.3142ZM48.7217 9.60155L48.7695 9.31484L48.8173 9.21927C48.8173 9.17148 48.8651 9.17148 48.8651 9.17148H48.9129H48.9607C49.343 8.98035 49.6774 8.74142 50.0597 8.55028C52.9268 6.87781 55.316 5.20535 57.6097 3.34174L57.8009 3.19839C57.8486 3.1506 57.8486 3.1506 57.8486 3.1506H57.8964H57.9442C58.1354 3.72402 58.3265 4.34522 58.5176 4.91864C58.7566 5.58763 58.9477 6.01769 59.091 6.35218C59.2344 6.59111 59.33 6.73446 59.4733 6.83003C59.5211 6.97339 59.6167 7.06895 59.9034 7.26009C60.429 7.59459 61.4803 8.02465 62.1015 8.21579C62.2926 8.26357 62.4838 8.35914 62.7227 8.45471C62.7705 8.45471 62.8183 8.5025 62.866 8.5025H62.9138C62.9138 8.59807 62.866 9.26705 62.6749 9.60155C62.436 10.175 55.1727 15.1446 55.0771 15.1924C54.6948 15.4313 54.3604 15.6702 53.9781 15.9091C53.6436 16.1003 53.3569 16.2914 53.0702 16.2914C52.5445 16.387 51.6844 16.1481 50.9676 16.0047C48.8651 15.5746 49.1996 15.6224 48.9129 15.5746C50.1553 14.7145 51.0632 14.1411 51.6366 13.6633C52.9746 12.6598 52.879 12.4208 52.7357 12.1819C52.5923 11.943 52.4012 11.7519 50.9198 12.4686C50.2031 12.8031 49.2474 13.3288 47.8616 14.0933C48.0528 13.0898 48.2917 11.4652 48.7217 9.60155Z" stroke="black" stroke-width="0.4" mask="url(#path-1-outside-1_775_950)"/>
</svg>