<svg xmlns="http://www.w3.org/2000/svg" width="30" height="30" viewBox="0 0 30 30" fill="none">
<path d="M18.7505 3V7.5C18.7505 8.32843 19.422 9 20.2505 9H24.7505M10.5005 9H13.5005M10.5005 13.5H19.5005M10.5005 18H19.5005M22.5005 5.25C21.8329 4.65268 21.1401 3.94422 20.7028 3.4841C20.4118 3.17792 20.0097 3 19.5873 3H8.25012C6.59327 3 5.25013 4.34314 5.25012 5.99998L5.25 23.9999C5.24999 25.6568 6.59313 26.9999 8.24999 26.9999L21.75 27C23.4069 27 24.75 25.6569 24.7501 24.0001L24.7505 8.09729C24.7505 7.71374 24.6041 7.34504 24.3379 7.06891C23.8457 6.55831 23.0237 5.71815 22.5005 5.25Z" stroke="black" stroke-width="2" stroke-linecap="round" stroke-linejoin="round"/>
</svg>