<svg xmlns="http://www.w3.org/2000/svg" width="33" height="32" viewBox="0 0 33 32" fill="none">
<path d="M12.589 26.56C13.1412 26.56 13.589 26.1123 13.589 25.56C13.589 25.0077 13.1412 24.56 12.589 24.56V26.56ZM6.18974 21.2935L5.18974 21.2936L6.18974 21.2935ZM7.18896 3.19991C7.18894 2.64762 6.74121 2.19993 6.18892 2.19995C5.63664 2.19997 5.18894 2.64771 5.18896 3.19999L7.18896 3.19991ZM12.589 10.7558C13.1412 10.7558 13.589 10.3081 13.589 9.75578C13.589 9.20349 13.1412 8.75578 12.589 8.75578V10.7558ZM25.389 13.1555L25.389 12.1555L25.389 13.1555ZM18.989 13.1555L18.989 14.1555L18.989 13.1555ZM26.8114 3.19995L27.8114 3.19997C27.8114 2.93475 27.7061 2.68039 27.5185 2.49285C27.331 2.30531 27.0766 2.19995 26.8114 2.19995V3.19995ZM26.8112 11.7333L27.8112 11.7333V11.7333L26.8112 11.7333ZM17.5667 11.7332L16.5667 11.7332V11.7332L17.5667 11.7332ZM17.5668 6.0444L16.9024 5.29699C16.6889 5.48676 16.5668 5.75876 16.5668 6.04439L17.5668 6.0444ZM20.7667 3.19995V2.19995C20.5218 2.19995 20.2854 2.28983 20.1024 2.45255L20.7667 3.19995ZM25.389 28.7999L25.389 27.7999L25.389 28.7999ZM18.989 28.7999L18.989 29.7999L18.989 28.7999ZM26.8114 18.8444L27.8114 18.8444C27.8114 18.5792 27.7061 18.3248 27.5185 18.1373C27.331 17.9498 27.0766 17.8444 26.8114 17.8444V18.8444ZM26.8112 27.3778L27.8112 27.3778V27.3778L26.8112 27.3778ZM17.5667 27.3777L16.5667 27.3777V27.3777L17.5667 27.3777ZM17.5668 21.6888L16.9024 20.9414C16.6889 21.1312 16.5668 21.4032 16.5668 21.6888L17.5668 21.6888ZM20.7667 18.8444V17.8444C20.5218 17.8444 20.2854 17.9343 20.1024 18.097L20.7667 18.8444ZM12.589 24.56H10.4564V26.56H12.589V24.56ZM7.18974 21.2935L7.18925 9.75573L5.18925 9.75582L5.18974 21.2936L7.18974 21.2935ZM7.18925 9.75573L7.18896 3.19991L5.18896 3.19999L5.18925 9.75582L7.18925 9.75573ZM12.589 8.75578H6.18925V10.7558H12.589V8.75578ZM10.4564 24.56C8.65233 24.56 7.18982 23.0976 7.18974 21.2935L5.18974 21.2936C5.18987 24.2022 7.54779 26.56 10.4564 26.56V24.56ZM25.389 12.1555L18.989 12.1555L18.989 14.1555L25.389 14.1555L25.389 12.1555ZM25.8114 3.19993L25.8112 11.7333L27.8112 11.7333L27.8114 3.19997L25.8114 3.19993ZM25.389 14.1555C26.7267 14.1555 27.8112 13.0711 27.8112 11.7333L25.8112 11.7333C25.8112 11.9665 25.6222 12.1555 25.389 12.1555L25.389 14.1555ZM16.5667 11.7332C16.5667 13.071 17.6512 14.1555 18.989 14.1555L18.989 12.1555C18.7558 12.1555 18.5667 11.9664 18.5667 11.7333L16.5667 11.7332ZM18.5667 11.7333L18.5668 6.0444L16.5668 6.04439L16.5667 11.7332L18.5667 11.7333ZM20.7667 4.19995H26.8114V2.19995H20.7667V4.19995ZM20.1024 2.45255L16.9024 5.29699L18.2312 6.7918L21.4311 3.94736L20.1024 2.45255ZM25.389 27.7999L18.989 27.7999L18.989 29.7999L25.389 29.7999L25.389 27.7999ZM25.8114 18.8444L25.8112 27.3777L27.8112 27.3778L27.8114 18.8444L25.8114 18.8444ZM25.389 29.7999C26.7267 29.8 27.8112 28.7155 27.8112 27.3778L25.8112 27.3777C25.8112 27.6109 25.6222 27.7999 25.389 27.7999L25.389 29.7999ZM16.5667 27.3777C16.5667 28.7154 17.6512 29.7999 18.989 29.7999L18.989 27.7999C18.7558 27.7999 18.5667 27.6109 18.5667 27.3777L16.5667 27.3777ZM18.5667 27.3777L18.5668 21.6888L16.5668 21.6888L16.5667 27.3777L18.5667 27.3777ZM20.7667 19.8444H26.8114V17.8444H20.7667V19.8444ZM20.1024 18.097L16.9024 20.9414L18.2312 22.4362L21.4311 19.5918L20.1024 18.097Z" fill="#525252"/>
</svg>