<svg xmlns="http://www.w3.org/2000/svg" width="60" height="64" viewBox="0 0 60 64" fill="none">
<path d="M46.2689 16.8474C42.2909 17.894 39.0746 18.9334 36.1907 20.1072C39.8781 14.9608 42.7332 8.89425 44.6141 2.79725C44.3972 2.42506 44.1802 2.05287 43.9633 1.68069C43.9795 1.5883 43.9996 1.49067 44.011 1.4047C44.1018 0.717714 43.3028 0.290839 42.8228 0.785586C37.7631 6.04062 33.0959 11.7266 29.3148 15.7502C25.7557 19.5389 22.8724 23.7991 19.3642 27.5334C18.9417 27.9836 19.2173 28.7642 19.8796 28.7774C23.0068 28.7034 24.4986 28.9847 28.1051 28.8698C24.4989 31.9053 21.3238 34.6352 17.5976 38.1642C17.1509 38.5874 17.3687 39.3958 18.0861 39.4376L25.5366 39.2386C21.1272 45.3573 16.0083 56.2289 12.9382 62.3574C12.6182 62.9961 13.3041 63.7288 13.937 63.3006C15.2321 63.3356 16.4365 62.3346 17.4342 61.3885C26.5463 52.7496 35.4157 44.4961 43.6553 34.9495C43.562 34.0075 43.4609 33.5341 43.3705 33.2653C43.8002 32.7582 43.3923 31.9656 42.7617 32.0539C39.673 32.4465 37.1169 32.6793 35.1274 32.9659C36.9266 31.6066 45.2959 21.7103 47.0709 19.4982C47.0304 19.0185 46.99 18.5388 46.9496 18.0591L46.9604 18.0466C47.4203 17.5145 46.9434 16.6738 46.2689 16.8474ZM41.0963 33.7303C35.1287 40.673 26.3467 50.2351 15.8169 59.7304C18.9938 53.2878 23.7262 43.7267 27.5505 38.9366C27.7265 38.7157 27.7626 38.408 27.6431 38.1489C27.5258 37.8965 27.2804 37.7365 27.0122 37.7365C27.0063 37.7365 27.0004 37.7365 26.9944 37.7365L19.9508 37.9241C23.4028 34.7209 26.469 32.1197 30.0204 29.1374C30.7668 28.5119 30.3348 27.3168 29.219 27.3563C25.8066 27.5421 23.95 27.3403 21.5021 27.3086C24.5658 23.8414 27.183 20.1095 30.3156 16.775C33.112 13.7971 37.7618 8.32927 41.8763 3.87737C39.7058 9.92582 35.4238 17.484 33.2581 21.5556C32.9333 22.1661 33.5396 22.8651 34.1576 22.5786C37.1088 21.1946 40.3186 20.0278 44.3536 18.8829L31.444 33.8484C30.9806 34.3844 31.4685 35.2287 32.1428 35.0457C34.4812 34.4027 36.9801 34.2129 41.0963 33.7303Z" fill="black"/>
</svg>