<svg xmlns="http://www.w3.org/2000/svg" width="60" height="62" viewBox="0 0 60 62" fill="none">
<mask id="path-1-outside-1_775_934" maskUnits="userSpaceOnUse" x="1.13477" y="0" width="58" height="62" fill="black">
<rect fill="white" x="1.13477" width="58" height="62"/>
<path d="M6.63293 42.267C8.08849 44.4503 9.90793 46.2698 11.8487 47.7253C13.7894 49.1809 15.9727 50.2725 18.0348 51.1216C22.2801 52.6984 26.2829 53.0623 29.6792 52.8197C33.0755 52.5771 35.6227 51.8494 37.4421 51.2429C37.5634 51.2429 37.5634 51.2429 37.6847 51.1216V53.3049C37.6847 53.9114 37.5634 54.6392 37.5634 55.367C37.5634 56.0947 37.5634 56.8225 37.9273 57.6716C38.5338 59.0058 39.9893 59.7336 41.4449 60.2188C44.8412 61.1892 48.6014 61.1892 51.8763 60.5827C52.968 60.3401 53.8171 60.0975 54.7875 59.8549C55.7578 59.6123 56.7282 59.2484 57.456 58.5207C58.1837 57.6716 58.305 56.8225 58.4263 56.0947C58.6689 54.5179 58.5476 53.3049 58.6689 52.2133C58.6689 50.2725 58.6689 49.1809 58.5476 48.9383C58.4263 48.817 58.0624 48.9383 57.5773 49.1809C57.6986 48.9383 57.8199 48.817 57.8199 48.5744C58.0624 47.8466 57.9412 47.1188 57.6986 46.6336C57.456 46.1485 57.2134 46.0272 56.9708 46.0272C56.4856 46.2698 56.4856 47.1188 56.1217 48.0892C56.0004 48.6957 55.7578 49.3022 55.6365 49.666C55.5152 49.666 55.2726 49.7873 54.0597 49.9086C54.181 49.666 54.3023 49.4235 54.3023 49.0596C54.5449 47.7253 53.9384 46.7549 53.5745 46.8762C53.0893 46.9975 52.8467 47.8466 52.6041 48.817C52.4828 49.3022 52.4828 49.7873 52.4828 50.2725C52.4828 50.2725 52.4828 50.2725 52.3615 50.2725C51.5125 50.3938 50.6634 50.3938 49.8143 50.3938C49.9356 50.2725 49.9356 50.1512 49.9356 49.9086C50.2995 48.6957 49.8143 47.604 49.3291 47.7253C48.8439 47.7253 48.4801 48.5744 48.2375 49.4234C48.1162 49.666 48.1162 50.0299 47.9949 50.2725C47.1458 50.2725 46.418 50.1512 45.569 50.1512C45.6903 50.0299 45.9328 49.7873 46.0541 49.5447C46.418 48.817 46.0541 48.0892 45.6903 47.9679C45.2051 47.8466 44.7199 48.3318 44.4773 48.817C44.356 49.1809 44.2347 49.666 44.356 49.9086C43.6282 49.7873 42.9004 49.666 42.294 49.5447C42.5366 49.4235 42.6578 49.1809 42.7791 48.9383C43.0217 48.3318 42.9004 47.604 42.4153 47.4827C41.9301 47.3614 41.4449 47.7253 41.2023 48.3318C41.081 48.6957 41.081 49.0596 41.2023 49.4234C40.4745 49.3022 39.868 49.1809 39.3829 49.0596C39.3829 48.9383 39.5042 44.5716 39.5042 42.1457C39.868 42.3883 40.1106 42.5096 40.5958 42.7522C42.4153 43.7225 45.3264 44.5716 48.6014 44.4503C51.8764 44.329 54.6662 43.2374 56.4856 41.9031C56.9708 41.5392 57.3347 41.1753 57.6986 40.8114C57.6986 41.1753 57.8199 41.4179 57.8199 41.7818C58.1837 45.4207 58.1837 48.817 58.4263 48.817C58.5476 48.817 58.6689 47.7253 58.7902 45.542C58.9115 43.3586 58.7902 41.2966 58.5476 39.3559C58.305 37.2938 57.5773 35.1105 55.8791 34.0188C55.1513 33.655 54.4236 33.2911 53.6958 33.1698C53.6958 33.0485 53.8171 33.0485 53.8171 33.0485C54.3023 32.3207 54.7875 31.1077 55.2726 29.5309C55.6365 27.954 56.0004 25.892 55.7578 23.4661C55.6365 21.0402 55.03 18.3717 53.8171 15.5819C51.0273 8.66798 45.2051 3.57354 38.2912 1.8754C34.4097 1.02632 30.1644 0.662437 25.7977 1.39021C21.5523 2.11799 17.0644 3.93743 13.5468 7.09113C12.5764 7.9402 11.7274 8.78927 10.9996 9.75964C10.5144 10.0022 10.0292 10.2448 9.30145 10.73C7.7246 11.8217 5.78386 13.8837 4.4496 17.0374C2.99405 20.0698 2.02368 24.0726 2.14498 28.5605C2.38757 32.9272 3.72183 37.9003 6.63293 42.267ZM3.84312 29.0457C4.5709 29.4096 5.54127 29.4096 6.14775 29.0457C6.39034 30.6226 6.63293 31.8355 7.11812 33.4124C6.87552 33.5337 6.51164 33.655 6.14775 33.7763C5.54127 33.8976 5.05608 33.7763 4.5709 33.655C4.20701 32.0781 3.96442 30.5013 3.84312 29.0457ZM5.17738 35.3531C5.54127 35.4744 5.90516 35.4744 6.39034 35.4744C6.87552 35.3531 7.36071 35.2318 7.7246 34.9892C7.96719 35.5957 8.20978 36.2022 8.45237 36.6874C8.81626 37.5364 9.42274 38.3855 9.90793 39.1133C9.54404 39.3559 9.18015 39.7198 8.81626 40.0837C8.45237 40.4475 8.20978 40.6901 7.84589 40.8114C6.75423 39.1133 5.78386 37.2938 5.17738 35.3531ZM11.2422 44.9355C10.2718 44.0864 9.42274 43.1161 8.69497 42.1457C9.18015 42.0244 9.54404 41.7818 9.90793 41.4179C10.2718 41.054 10.5144 40.6901 10.6357 40.3262C10.8783 40.6901 11.1209 41.054 11.3635 41.2966C11.8487 41.9031 12.3338 42.3883 12.819 42.8735C12.5764 42.9948 12.2126 43.3586 11.97 43.6012C11.7274 44.0864 11.4848 44.4503 11.2422 44.9355ZM16.5792 48.5744C15.3662 47.9679 14.032 47.2401 12.9403 46.2698C12.6977 46.0272 12.4551 45.7846 12.2126 45.6633C12.5764 45.542 13.0616 45.1781 13.4255 44.8142C13.7894 44.4503 13.9107 44.2077 14.1533 43.8438C15.3662 44.9355 16.7005 45.9059 18.0348 46.6336C17.7922 46.8762 17.6709 47.1188 17.4283 47.3614C17.0644 47.7253 16.8218 48.2105 16.5792 48.5744ZM23.7357 51.0003C22.0375 50.6364 20.3394 50.2725 18.6412 49.5447C18.3986 49.4235 18.1561 49.3022 17.7922 49.1809C18.3986 48.817 18.8838 48.2105 19.1264 47.3614C20.9459 48.3318 22.7653 49.0596 24.4634 49.5447C24.2209 49.7873 23.857 50.2725 23.7357 51.0003ZM37.6847 50.3938C37.5634 50.3938 37.4421 50.5151 37.1995 50.5151C35.5014 51.0003 32.8329 51.4855 29.6792 51.4855C28.3449 51.4855 26.8894 51.3642 25.4338 51.2429C25.4338 51.2429 25.4338 51.2429 25.4338 51.1216C25.6764 50.6364 25.6764 50.1512 25.4338 49.7873C28.3449 50.5151 30.8921 50.7577 32.8329 50.7577C33.6819 50.7577 34.4097 50.7577 35.0162 50.6364C35.6227 50.6364 36.2292 50.5151 36.5931 50.3938C36.9569 50.2725 37.3208 50.2725 37.5634 50.1512C37.6847 50.2725 37.6847 50.2725 37.6847 50.3938ZM39.6255 50.1512C43.2643 51.8494 48.1162 52.4559 52.4828 51.7281C53.8171 51.3642 54.9088 51.1216 55.8791 50.7577C57.2134 50.2725 57.9412 49.666 58.305 49.1809C58.1837 49.666 58.0624 50.6364 57.9412 51.9707C57.8199 52.941 57.6986 54.2753 57.456 55.7308C57.3347 56.4586 57.0921 57.1864 56.6069 57.5503C56.1217 58.0355 55.3939 58.2781 54.5449 58.5207C52.7254 58.8845 50.7847 59.3697 48.6014 59.3697C46.5393 59.3697 44.2347 59.2484 41.9301 58.5207C40.8384 58.1568 39.7467 57.6716 39.3829 56.8225C39.2616 56.4586 39.1403 55.8521 39.2616 55.2457C39.2616 54.6392 39.3829 54.0327 39.3829 53.3049C39.3829 52.3346 39.3829 51.2429 39.5042 50.2725C39.5042 50.1512 39.6255 50.1512 39.6255 50.1512ZM55.2726 35.1105C56.0004 35.4744 56.4856 36.2022 56.8495 37.0512C57.2134 37.9003 57.456 38.8707 57.5773 39.7198C57.2134 40.0836 56.6069 40.5688 55.8791 40.9327C54.181 41.7818 51.5125 42.6309 48.6014 42.7522C45.6903 42.8735 43.0217 42.267 41.081 41.6605C40.4745 41.4179 39.9893 41.2966 39.5042 41.054C39.5042 40.9327 39.5042 40.8114 39.5042 40.6901C39.5042 39.3559 39.5042 37.9003 39.868 36.93C39.9893 36.3235 40.2319 36.0809 40.7171 35.717C41.2023 35.3531 41.6875 35.1105 42.294 34.9892C43.3856 34.6253 44.5986 34.2614 45.8115 34.1401C46.9032 34.0188 48.1162 34.0188 49.3291 34.0188C50.5421 34.0188 51.6338 34.1401 52.6041 34.2614C53.5745 34.3827 54.4236 34.7466 55.2726 35.1105ZM14.7598 8.30409C19.7329 3.69484 28.1023 1.26892 37.9273 3.45225C44.356 4.9078 49.8143 9.63834 52.8467 15.9457C54.0597 18.493 54.6662 21.1615 54.9087 23.3448C55.1513 25.6494 54.9088 27.5902 54.6662 29.167C54.3023 30.7439 53.9384 31.9568 53.5745 32.8059C53.5745 32.9272 53.4532 32.9272 53.4532 33.0485C52.1189 32.6846 50.7847 32.6846 49.2078 32.5633C47.9949 32.442 46.7819 32.442 45.4477 32.5633C44.1134 32.6846 42.9004 33.0485 41.5662 33.4124C40.9597 33.655 40.2319 33.8976 39.6255 34.3827C38.8977 34.8679 38.4125 35.5957 38.1699 36.4448C37.6847 37.9003 37.806 39.3559 37.6847 40.6901C37.5634 46.391 37.6847 42.9948 37.5634 50.0299C36.8356 50.0299 35.2588 50.1512 32.8329 50.0299C29.5579 49.9086 24.8273 49.1809 19.7329 46.2698C17.1857 44.8142 14.6385 42.8735 12.5764 40.3262C11.97 39.7198 11.6061 38.992 10.9996 38.2642C10.6357 37.5364 10.0292 36.8087 9.66533 35.9596C9.30145 35.1105 8.93756 34.2614 8.57367 33.2911C8.57367 33.0485 8.57367 32.8059 8.45237 32.6846C8.33108 32.0781 8.20978 31.4716 8.08849 30.7439C7.23941 27.105 7.36071 22.9809 8.45237 18.9781C9.42274 15.0967 11.6061 11.2152 14.7598 8.30409ZM9.78663 11.2152C9.90793 11.0939 10.0292 10.9726 10.2718 10.8513C9.05885 12.5494 8.08849 14.4902 7.48201 16.4309C7.36071 16.4309 7.23941 16.3096 7.11812 16.3096C6.75423 16.1883 6.51164 16.1883 6.26905 16.1883C7.36071 13.8837 8.69496 12.3069 9.78663 11.2152ZM5.66256 17.5226C5.90516 17.7652 6.26905 18.0078 6.63293 18.1291H6.87553C6.87553 18.2504 6.75423 18.493 6.75423 18.6143C6.51164 19.4633 6.39034 20.3124 6.26905 21.2828C6.02645 21.2828 5.78386 21.1615 5.54127 21.1615C5.17738 21.0402 4.93479 21.0402 4.6922 20.9189C4.81349 19.5846 5.17738 18.493 5.66256 17.5226ZM5.05608 22.7383C5.41997 22.8596 5.78386 22.8596 6.02645 22.7383C5.90516 24.4365 5.90516 26.1346 6.02645 27.8328C5.66257 27.7115 5.29868 27.5902 4.93479 27.5902C4.5709 27.5902 4.20701 27.4689 3.84312 27.4689C3.84312 25.6494 3.96442 23.9513 4.20701 22.3744C4.4496 22.4957 4.6922 22.617 5.05608 22.7383Z"/>
</mask>
<path d="M6.63293 42.267C8.08849 44.4503 9.90793 46.2698 11.8487 47.7253C13.7894 49.1809 15.9727 50.2725 18.0348 51.1216C22.2801 52.6984 26.2829 53.0623 29.6792 52.8197C33.0755 52.5771 35.6227 51.8494 37.4421 51.2429C37.5634 51.2429 37.5634 51.2429 37.6847 51.1216V53.3049C37.6847 53.9114 37.5634 54.6392 37.5634 55.367C37.5634 56.0947 37.5634 56.8225 37.9273 57.6716C38.5338 59.0058 39.9893 59.7336 41.4449 60.2188C44.8412 61.1892 48.6014 61.1892 51.8763 60.5827C52.968 60.3401 53.8171 60.0975 54.7875 59.8549C55.7578 59.6123 56.7282 59.2484 57.456 58.5207C58.1837 57.6716 58.305 56.8225 58.4263 56.0947C58.6689 54.5179 58.5476 53.3049 58.6689 52.2133C58.6689 50.2725 58.6689 49.1809 58.5476 48.9383C58.4263 48.817 58.0624 48.9383 57.5773 49.1809C57.6986 48.9383 57.8199 48.817 57.8199 48.5744C58.0624 47.8466 57.9412 47.1188 57.6986 46.6336C57.456 46.1485 57.2134 46.0272 56.9708 46.0272C56.4856 46.2698 56.4856 47.1188 56.1217 48.0892C56.0004 48.6957 55.7578 49.3022 55.6365 49.666C55.5152 49.666 55.2726 49.7873 54.0597 49.9086C54.181 49.666 54.3023 49.4235 54.3023 49.0596C54.5449 47.7253 53.9384 46.7549 53.5745 46.8762C53.0893 46.9975 52.8467 47.8466 52.6041 48.817C52.4828 49.3022 52.4828 49.7873 52.4828 50.2725C52.4828 50.2725 52.4828 50.2725 52.3615 50.2725C51.5125 50.3938 50.6634 50.3938 49.8143 50.3938C49.9356 50.2725 49.9356 50.1512 49.9356 49.9086C50.2995 48.6957 49.8143 47.604 49.3291 47.7253C48.8439 47.7253 48.4801 48.5744 48.2375 49.4234C48.1162 49.666 48.1162 50.0299 47.9949 50.2725C47.1458 50.2725 46.418 50.1512 45.569 50.1512C45.6903 50.0299 45.9328 49.7873 46.0541 49.5447C46.418 48.817 46.0541 48.0892 45.6903 47.9679C45.2051 47.8466 44.7199 48.3318 44.4773 48.817C44.356 49.1809 44.2347 49.666 44.356 49.9086C43.6282 49.7873 42.9004 49.666 42.294 49.5447C42.5366 49.4235 42.6578 49.1809 42.7791 48.9383C43.0217 48.3318 42.9004 47.604 42.4153 47.4827C41.9301 47.3614 41.4449 47.7253 41.2023 48.3318C41.081 48.6957 41.081 49.0596 41.2023 49.4234C40.4745 49.3022 39.868 49.1809 39.3829 49.0596C39.3829 48.9383 39.5042 44.5716 39.5042 42.1457C39.868 42.3883 40.1106 42.5096 40.5958 42.7522C42.4153 43.7225 45.3264 44.5716 48.6014 44.4503C51.8764 44.329 54.6662 43.2374 56.4856 41.9031C56.9708 41.5392 57.3347 41.1753 57.6986 40.8114C57.6986 41.1753 57.8199 41.4179 57.8199 41.7818C58.1837 45.4207 58.1837 48.817 58.4263 48.817C58.5476 48.817 58.6689 47.7253 58.7902 45.542C58.9115 43.3586 58.7902 41.2966 58.5476 39.3559C58.305 37.2938 57.5773 35.1105 55.8791 34.0188C55.1513 33.655 54.4236 33.2911 53.6958 33.1698C53.6958 33.0485 53.8171 33.0485 53.8171 33.0485C54.3023 32.3207 54.7875 31.1077 55.2726 29.5309C55.6365 27.954 56.0004 25.892 55.7578 23.4661C55.6365 21.0402 55.03 18.3717 53.8171 15.5819C51.0273 8.66798 45.2051 3.57354 38.2912 1.8754C34.4097 1.02632 30.1644 0.662437 25.7977 1.39021C21.5523 2.11799 17.0644 3.93743 13.5468 7.09113C12.5764 7.9402 11.7274 8.78927 10.9996 9.75964C10.5144 10.0022 10.0292 10.2448 9.30145 10.73C7.7246 11.8217 5.78386 13.8837 4.4496 17.0374C2.99405 20.0698 2.02368 24.0726 2.14498 28.5605C2.38757 32.9272 3.72183 37.9003 6.63293 42.267ZM3.84312 29.0457C4.5709 29.4096 5.54127 29.4096 6.14775 29.0457C6.39034 30.6226 6.63293 31.8355 7.11812 33.4124C6.87552 33.5337 6.51164 33.655 6.14775 33.7763C5.54127 33.8976 5.05608 33.7763 4.5709 33.655C4.20701 32.0781 3.96442 30.5013 3.84312 29.0457ZM5.17738 35.3531C5.54127 35.4744 5.90516 35.4744 6.39034 35.4744C6.87552 35.3531 7.36071 35.2318 7.7246 34.9892C7.96719 35.5957 8.20978 36.2022 8.45237 36.6874C8.81626 37.5364 9.42274 38.3855 9.90793 39.1133C9.54404 39.3559 9.18015 39.7198 8.81626 40.0837C8.45237 40.4475 8.20978 40.6901 7.84589 40.8114C6.75423 39.1133 5.78386 37.2938 5.17738 35.3531ZM11.2422 44.9355C10.2718 44.0864 9.42274 43.1161 8.69497 42.1457C9.18015 42.0244 9.54404 41.7818 9.90793 41.4179C10.2718 41.054 10.5144 40.6901 10.6357 40.3262C10.8783 40.6901 11.1209 41.054 11.3635 41.2966C11.8487 41.9031 12.3338 42.3883 12.819 42.8735C12.5764 42.9948 12.2126 43.3586 11.97 43.6012C11.7274 44.0864 11.4848 44.4503 11.2422 44.9355ZM16.5792 48.5744C15.3662 47.9679 14.032 47.2401 12.9403 46.2698C12.6977 46.0272 12.4551 45.7846 12.2126 45.6633C12.5764 45.542 13.0616 45.1781 13.4255 44.8142C13.7894 44.4503 13.9107 44.2077 14.1533 43.8438C15.3662 44.9355 16.7005 45.9059 18.0348 46.6336C17.7922 46.8762 17.6709 47.1188 17.4283 47.3614C17.0644 47.7253 16.8218 48.2105 16.5792 48.5744ZM23.7357 51.0003C22.0375 50.6364 20.3394 50.2725 18.6412 49.5447C18.3986 49.4235 18.1561 49.3022 17.7922 49.1809C18.3986 48.817 18.8838 48.2105 19.1264 47.3614C20.9459 48.3318 22.7653 49.0596 24.4634 49.5447C24.2209 49.7873 23.857 50.2725 23.7357 51.0003ZM37.6847 50.3938C37.5634 50.3938 37.4421 50.5151 37.1995 50.5151C35.5014 51.0003 32.8329 51.4855 29.6792 51.4855C28.3449 51.4855 26.8894 51.3642 25.4338 51.2429C25.4338 51.2429 25.4338 51.2429 25.4338 51.1216C25.6764 50.6364 25.6764 50.1512 25.4338 49.7873C28.3449 50.5151 30.8921 50.7577 32.8329 50.7577C33.6819 50.7577 34.4097 50.7577 35.0162 50.6364C35.6227 50.6364 36.2292 50.5151 36.5931 50.3938C36.9569 50.2725 37.3208 50.2725 37.5634 50.1512C37.6847 50.2725 37.6847 50.2725 37.6847 50.3938ZM39.6255 50.1512C43.2643 51.8494 48.1162 52.4559 52.4828 51.7281C53.8171 51.3642 54.9088 51.1216 55.8791 50.7577C57.2134 50.2725 57.9412 49.666 58.305 49.1809C58.1837 49.666 58.0624 50.6364 57.9412 51.9707C57.8199 52.941 57.6986 54.2753 57.456 55.7308C57.3347 56.4586 57.0921 57.1864 56.6069 57.5503C56.1217 58.0355 55.3939 58.2781 54.5449 58.5207C52.7254 58.8845 50.7847 59.3697 48.6014 59.3697C46.5393 59.3697 44.2347 59.2484 41.9301 58.5207C40.8384 58.1568 39.7467 57.6716 39.3829 56.8225C39.2616 56.4586 39.1403 55.8521 39.2616 55.2457C39.2616 54.6392 39.3829 54.0327 39.3829 53.3049C39.3829 52.3346 39.3829 51.2429 39.5042 50.2725C39.5042 50.1512 39.6255 50.1512 39.6255 50.1512ZM55.2726 35.1105C56.0004 35.4744 56.4856 36.2022 56.8495 37.0512C57.2134 37.9003 57.456 38.8707 57.5773 39.7198C57.2134 40.0836 56.6069 40.5688 55.8791 40.9327C54.181 41.7818 51.5125 42.6309 48.6014 42.7522C45.6903 42.8735 43.0217 42.267 41.081 41.6605C40.4745 41.4179 39.9893 41.2966 39.5042 41.054C39.5042 40.9327 39.5042 40.8114 39.5042 40.6901C39.5042 39.3559 39.5042 37.9003 39.868 36.93C39.9893 36.3235 40.2319 36.0809 40.7171 35.717C41.2023 35.3531 41.6875 35.1105 42.294 34.9892C43.3856 34.6253 44.5986 34.2614 45.8115 34.1401C46.9032 34.0188 48.1162 34.0188 49.3291 34.0188C50.5421 34.0188 51.6338 34.1401 52.6041 34.2614C53.5745 34.3827 54.4236 34.7466 55.2726 35.1105ZM14.7598 8.30409C19.7329 3.69484 28.1023 1.26892 37.9273 3.45225C44.356 4.9078 49.8143 9.63834 52.8467 15.9457C54.0597 18.493 54.6662 21.1615 54.9087 23.3448C55.1513 25.6494 54.9088 27.5902 54.6662 29.167C54.3023 30.7439 53.9384 31.9568 53.5745 32.8059C53.5745 32.9272 53.4532 32.9272 53.4532 33.0485C52.1189 32.6846 50.7847 32.6846 49.2078 32.5633C47.9949 32.442 46.7819 32.442 45.4477 32.5633C44.1134 32.6846 42.9004 33.0485 41.5662 33.4124C40.9597 33.655 40.2319 33.8976 39.6255 34.3827C38.8977 34.8679 38.4125 35.5957 38.1699 36.4448C37.6847 37.9003 37.806 39.3559 37.6847 40.6901C37.5634 46.391 37.6847 42.9948 37.5634 50.0299C36.8356 50.0299 35.2588 50.1512 32.8329 50.0299C29.5579 49.9086 24.8273 49.1809 19.7329 46.2698C17.1857 44.8142 14.6385 42.8735 12.5764 40.3262C11.97 39.7198 11.6061 38.992 10.9996 38.2642C10.6357 37.5364 10.0292 36.8087 9.66533 35.9596C9.30145 35.1105 8.93756 34.2614 8.57367 33.2911C8.57367 33.0485 8.57367 32.8059 8.45237 32.6846C8.33108 32.0781 8.20978 31.4716 8.08849 30.7439C7.23941 27.105 7.36071 22.9809 8.45237 18.9781C9.42274 15.0967 11.6061 11.2152 14.7598 8.30409ZM9.78663 11.2152C9.90793 11.0939 10.0292 10.9726 10.2718 10.8513C9.05885 12.5494 8.08849 14.4902 7.48201 16.4309C7.36071 16.4309 7.23941 16.3096 7.11812 16.3096C6.75423 16.1883 6.51164 16.1883 6.26905 16.1883C7.36071 13.8837 8.69496 12.3069 9.78663 11.2152ZM5.66256 17.5226C5.90516 17.7652 6.26905 18.0078 6.63293 18.1291H6.87553C6.87553 18.2504 6.75423 18.493 6.75423 18.6143C6.51164 19.4633 6.39034 20.3124 6.26905 21.2828C6.02645 21.2828 5.78386 21.1615 5.54127 21.1615C5.17738 21.0402 4.93479 21.0402 4.6922 20.9189C4.81349 19.5846 5.17738 18.493 5.66256 17.5226ZM5.05608 22.7383C5.41997 22.8596 5.78386 22.8596 6.02645 22.7383C5.90516 24.4365 5.90516 26.1346 6.02645 27.8328C5.66257 27.7115 5.29868 27.5902 4.93479 27.5902C4.5709 27.5902 4.20701 27.4689 3.84312 27.4689C3.84312 25.6494 3.96442 23.9513 4.20701 22.3744C4.4496 22.4957 4.6922 22.617 5.05608 22.7383Z" fill="black"/>
<path d="M6.63293 42.267C8.08849 44.4503 9.90793 46.2698 11.8487 47.7253C13.7894 49.1809 15.9727 50.2725 18.0348 51.1216C22.2801 52.6984 26.2829 53.0623 29.6792 52.8197C33.0755 52.5771 35.6227 51.8494 37.4421 51.2429C37.5634 51.2429 37.5634 51.2429 37.6847 51.1216V53.3049C37.6847 53.9114 37.5634 54.6392 37.5634 55.367C37.5634 56.0947 37.5634 56.8225 37.9273 57.6716C38.5338 59.0058 39.9893 59.7336 41.4449 60.2188C44.8412 61.1892 48.6014 61.1892 51.8763 60.5827C52.968 60.3401 53.8171 60.0975 54.7875 59.8549C55.7578 59.6123 56.7282 59.2484 57.456 58.5207C58.1837 57.6716 58.305 56.8225 58.4263 56.0947C58.6689 54.5179 58.5476 53.3049 58.6689 52.2133C58.6689 50.2725 58.6689 49.1809 58.5476 48.9383C58.4263 48.817 58.0624 48.9383 57.5773 49.1809C57.6986 48.9383 57.8199 48.817 57.8199 48.5744C58.0624 47.8466 57.9412 47.1188 57.6986 46.6336C57.456 46.1485 57.2134 46.0272 56.9708 46.0272C56.4856 46.2698 56.4856 47.1188 56.1217 48.0892C56.0004 48.6957 55.7578 49.3022 55.6365 49.666C55.5152 49.666 55.2726 49.7873 54.0597 49.9086C54.181 49.666 54.3023 49.4235 54.3023 49.0596C54.5449 47.7253 53.9384 46.7549 53.5745 46.8762C53.0893 46.9975 52.8467 47.8466 52.6041 48.817C52.4828 49.3022 52.4828 49.7873 52.4828 50.2725C52.4828 50.2725 52.4828 50.2725 52.3615 50.2725C51.5125 50.3938 50.6634 50.3938 49.8143 50.3938C49.9356 50.2725 49.9356 50.1512 49.9356 49.9086C50.2995 48.6957 49.8143 47.604 49.3291 47.7253C48.8439 47.7253 48.4801 48.5744 48.2375 49.4234C48.1162 49.666 48.1162 50.0299 47.9949 50.2725C47.1458 50.2725 46.418 50.1512 45.569 50.1512C45.6903 50.0299 45.9328 49.7873 46.0541 49.5447C46.418 48.817 46.0541 48.0892 45.6903 47.9679C45.2051 47.8466 44.7199 48.3318 44.4773 48.817C44.356 49.1809 44.2347 49.666 44.356 49.9086C43.6282 49.7873 42.9004 49.666 42.294 49.5447C42.5366 49.4235 42.6578 49.1809 42.7791 48.9383C43.0217 48.3318 42.9004 47.604 42.4153 47.4827C41.9301 47.3614 41.4449 47.7253 41.2023 48.3318C41.081 48.6957 41.081 49.0596 41.2023 49.4234C40.4745 49.3022 39.868 49.1809 39.3829 49.0596C39.3829 48.9383 39.5042 44.5716 39.5042 42.1457C39.868 42.3883 40.1106 42.5096 40.5958 42.7522C42.4153 43.7225 45.3264 44.5716 48.6014 44.4503C51.8764 44.329 54.6662 43.2374 56.4856 41.9031C56.9708 41.5392 57.3347 41.1753 57.6986 40.8114C57.6986 41.1753 57.8199 41.4179 57.8199 41.7818C58.1837 45.4207 58.1837 48.817 58.4263 48.817C58.5476 48.817 58.6689 47.7253 58.7902 45.542C58.9115 43.3586 58.7902 41.2966 58.5476 39.3559C58.305 37.2938 57.5773 35.1105 55.8791 34.0188C55.1513 33.655 54.4236 33.2911 53.6958 33.1698C53.6958 33.0485 53.8171 33.0485 53.8171 33.0485C54.3023 32.3207 54.7875 31.1077 55.2726 29.5309C55.6365 27.954 56.0004 25.892 55.7578 23.4661C55.6365 21.0402 55.03 18.3717 53.8171 15.5819C51.0273 8.66798 45.2051 3.57354 38.2912 1.8754C34.4097 1.02632 30.1644 0.662437 25.7977 1.39021C21.5523 2.11799 17.0644 3.93743 13.5468 7.09113C12.5764 7.9402 11.7274 8.78927 10.9996 9.75964C10.5144 10.0022 10.0292 10.2448 9.30145 10.73C7.7246 11.8217 5.78386 13.8837 4.4496 17.0374C2.99405 20.0698 2.02368 24.0726 2.14498 28.5605C2.38757 32.9272 3.72183 37.9003 6.63293 42.267ZM3.84312 29.0457C4.5709 29.4096 5.54127 29.4096 6.14775 29.0457C6.39034 30.6226 6.63293 31.8355 7.11812 33.4124C6.87552 33.5337 6.51164 33.655 6.14775 33.7763C5.54127 33.8976 5.05608 33.7763 4.5709 33.655C4.20701 32.0781 3.96442 30.5013 3.84312 29.0457ZM5.17738 35.3531C5.54127 35.4744 5.90516 35.4744 6.39034 35.4744C6.87552 35.3531 7.36071 35.2318 7.7246 34.9892C7.96719 35.5957 8.20978 36.2022 8.45237 36.6874C8.81626 37.5364 9.42274 38.3855 9.90793 39.1133C9.54404 39.3559 9.18015 39.7198 8.81626 40.0837C8.45237 40.4475 8.20978 40.6901 7.84589 40.8114C6.75423 39.1133 5.78386 37.2938 5.17738 35.3531ZM11.2422 44.9355C10.2718 44.0864 9.42274 43.1161 8.69497 42.1457C9.18015 42.0244 9.54404 41.7818 9.90793 41.4179C10.2718 41.054 10.5144 40.6901 10.6357 40.3262C10.8783 40.6901 11.1209 41.054 11.3635 41.2966C11.8487 41.9031 12.3338 42.3883 12.819 42.8735C12.5764 42.9948 12.2126 43.3586 11.97 43.6012C11.7274 44.0864 11.4848 44.4503 11.2422 44.9355ZM16.5792 48.5744C15.3662 47.9679 14.032 47.2401 12.9403 46.2698C12.6977 46.0272 12.4551 45.7846 12.2126 45.6633C12.5764 45.542 13.0616 45.1781 13.4255 44.8142C13.7894 44.4503 13.9107 44.2077 14.1533 43.8438C15.3662 44.9355 16.7005 45.9059 18.0348 46.6336C17.7922 46.8762 17.6709 47.1188 17.4283 47.3614C17.0644 47.7253 16.8218 48.2105 16.5792 48.5744ZM23.7357 51.0003C22.0375 50.6364 20.3394 50.2725 18.6412 49.5447C18.3986 49.4235 18.1561 49.3022 17.7922 49.1809C18.3986 48.817 18.8838 48.2105 19.1264 47.3614C20.9459 48.3318 22.7653 49.0596 24.4634 49.5447C24.2209 49.7873 23.857 50.2725 23.7357 51.0003ZM37.6847 50.3938C37.5634 50.3938 37.4421 50.5151 37.1995 50.5151C35.5014 51.0003 32.8329 51.4855 29.6792 51.4855C28.3449 51.4855 26.8894 51.3642 25.4338 51.2429C25.4338 51.2429 25.4338 51.2429 25.4338 51.1216C25.6764 50.6364 25.6764 50.1512 25.4338 49.7873C28.3449 50.5151 30.8921 50.7577 32.8329 50.7577C33.6819 50.7577 34.4097 50.7577 35.0162 50.6364C35.6227 50.6364 36.2292 50.5151 36.5931 50.3938C36.9569 50.2725 37.3208 50.2725 37.5634 50.1512C37.6847 50.2725 37.6847 50.2725 37.6847 50.3938ZM39.6255 50.1512C43.2643 51.8494 48.1162 52.4559 52.4828 51.7281C53.8171 51.3642 54.9088 51.1216 55.8791 50.7577C57.2134 50.2725 57.9412 49.666 58.305 49.1809C58.1837 49.666 58.0624 50.6364 57.9412 51.9707C57.8199 52.941 57.6986 54.2753 57.456 55.7308C57.3347 56.4586 57.0921 57.1864 56.6069 57.5503C56.1217 58.0355 55.3939 58.2781 54.5449 58.5207C52.7254 58.8845 50.7847 59.3697 48.6014 59.3697C46.5393 59.3697 44.2347 59.2484 41.9301 58.5207C40.8384 58.1568 39.7467 57.6716 39.3829 56.8225C39.2616 56.4586 39.1403 55.8521 39.2616 55.2457C39.2616 54.6392 39.3829 54.0327 39.3829 53.3049C39.3829 52.3346 39.3829 51.2429 39.5042 50.2725C39.5042 50.1512 39.6255 50.1512 39.6255 50.1512ZM55.2726 35.1105C56.0004 35.4744 56.4856 36.2022 56.8495 37.0512C57.2134 37.9003 57.456 38.8707 57.5773 39.7198C57.2134 40.0836 56.6069 40.5688 55.8791 40.9327C54.181 41.7818 51.5125 42.6309 48.6014 42.7522C45.6903 42.8735 43.0217 42.267 41.081 41.6605C40.4745 41.4179 39.9893 41.2966 39.5042 41.054C39.5042 40.9327 39.5042 40.8114 39.5042 40.6901C39.5042 39.3559 39.5042 37.9003 39.868 36.93C39.9893 36.3235 40.2319 36.0809 40.7171 35.717C41.2023 35.3531 41.6875 35.1105 42.294 34.9892C43.3856 34.6253 44.5986 34.2614 45.8115 34.1401C46.9032 34.0188 48.1162 34.0188 49.3291 34.0188C50.5421 34.0188 51.6338 34.1401 52.6041 34.2614C53.5745 34.3827 54.4236 34.7466 55.2726 35.1105ZM14.7598 8.30409C19.7329 3.69484 28.1023 1.26892 37.9273 3.45225C44.356 4.9078 49.8143 9.63834 52.8467 15.9457C54.0597 18.493 54.6662 21.1615 54.9087 23.3448C55.1513 25.6494 54.9088 27.5902 54.6662 29.167C54.3023 30.7439 53.9384 31.9568 53.5745 32.8059C53.5745 32.9272 53.4532 32.9272 53.4532 33.0485C52.1189 32.6846 50.7847 32.6846 49.2078 32.5633C47.9949 32.442 46.7819 32.442 45.4477 32.5633C44.1134 32.6846 42.9004 33.0485 41.5662 33.4124C40.9597 33.655 40.2319 33.8976 39.6255 34.3827C38.8977 34.8679 38.4125 35.5957 38.1699 36.4448C37.6847 37.9003 37.806 39.3559 37.6847 40.6901C37.5634 46.391 37.6847 42.9948 37.5634 50.0299C36.8356 50.0299 35.2588 50.1512 32.8329 50.0299C29.5579 49.9086 24.8273 49.1809 19.7329 46.2698C17.1857 44.8142 14.6385 42.8735 12.5764 40.3262C11.97 39.7198 11.6061 38.992 10.9996 38.2642C10.6357 37.5364 10.0292 36.8087 9.66533 35.9596C9.30145 35.1105 8.93756 34.2614 8.57367 33.2911C8.57367 33.0485 8.57367 32.8059 8.45237 32.6846C8.33108 32.0781 8.20978 31.4716 8.08849 30.7439C7.23941 27.105 7.36071 22.9809 8.45237 18.9781C9.42274 15.0967 11.6061 11.2152 14.7598 8.30409ZM9.78663 11.2152C9.90793 11.0939 10.0292 10.9726 10.2718 10.8513C9.05885 12.5494 8.08849 14.4902 7.48201 16.4309C7.36071 16.4309 7.23941 16.3096 7.11812 16.3096C6.75423 16.1883 6.51164 16.1883 6.26905 16.1883C7.36071 13.8837 8.69496 12.3069 9.78663 11.2152ZM5.66256 17.5226C5.90516 17.7652 6.26905 18.0078 6.63293 18.1291H6.87553C6.87553 18.2504 6.75423 18.493 6.75423 18.6143C6.51164 19.4633 6.39034 20.3124 6.26905 21.2828C6.02645 21.2828 5.78386 21.1615 5.54127 21.1615C5.17738 21.0402 4.93479 21.0402 4.6922 20.9189C4.81349 19.5846 5.17738 18.493 5.66256 17.5226ZM5.05608 22.7383C5.41997 22.8596 5.78386 22.8596 6.02645 22.7383C5.90516 24.4365 5.90516 26.1346 6.02645 27.8328C5.66257 27.7115 5.29868 27.5902 4.93479 27.5902C4.5709 27.5902 4.20701 27.4689 3.84312 27.4689C3.84312 25.6494 3.96442 23.9513 4.20701 22.3744C4.4496 22.4957 4.6922 22.617 5.05608 22.7383Z" stroke="black" stroke-width="0.2" mask="url(#path-1-outside-1_775_934)"/>
<path d="M30.923 31.0778C30.8503 31.0914 30.6324 31.1321 30.2691 31.2C29.9058 31.2679 29.4698 31.3493 28.9612 31.4444C28.4673 31.5178 27.957 31.6038 27.4302 31.7022C26.9034 31.8006 26.4221 31.8906 25.9861 31.972C25.5467 32.0353 25.2271 32.0856 25.0273 32.1229C24.9183 32.1433 24.7804 32.1597 24.6135 32.172C24.4466 32.1844 24.2565 32.173 24.0431 32.1376C23.7706 32.1885 23.5516 32.1731 23.3859 32.0912C23.2168 31.9912 23.0841 31.8844 22.9876 31.7709C22.8232 31.5948 22.7563 31.4381 22.787 31.3008C22.8178 31.1634 22.9535 31.0347 23.1942 30.9145C23.435 30.7943 23.779 30.6736 24.2263 30.5525C24.525 30.4403 24.9814 30.3174 25.5956 30.1838C26.2246 30.0287 26.9024 29.8833 27.629 29.7475C28.3704 29.5902 29.0697 29.4596 29.7271 29.3556C30.3992 29.23 30.9169 29.1333 31.2802 29.0654C31.7525 28.9771 32.1804 28.9536 32.5641 28.9947C32.9444 29.0176 33.244 29.112 33.463 29.2779C33.6355 29.3961 33.7461 29.5352 33.7948 29.6953C33.8582 29.8339 33.8655 29.9735 33.8166 30.1142C33.7677 30.2549 33.6774 30.3752 33.5457 30.475C33.4105 30.5567 33.2396 30.598 33.033 30.599C32.9422 30.616 32.7713 30.6573 32.5204 30.723C32.2661 30.7705 31.9863 30.8322 31.6808 30.908C31.3902 30.9623 31.1376 31.0189 30.923 31.0778ZM27.4532 27.7501C26.9775 27.8202 26.5398 27.8925 26.1402 27.9672C25.7587 28.0385 25.4681 28.0928 25.2683 28.1301C25.1593 28.1505 25.0214 28.1668 24.8545 28.1792C24.6876 28.1916 24.4975 28.1801 24.2841 28.1448C24.0116 28.1957 23.7925 28.1802 23.6268 28.0984C23.4578 27.9984 23.325 27.8916 23.2286 27.778C22.9745 27.5247 22.9519 27.3033 23.1609 27.1139C23.3699 26.9244 23.8054 26.7397 24.4673 26.5596C24.7114 26.4576 25.0679 26.3534 25.5368 26.247C26.0239 26.1372 26.5473 26.0206 27.107 25.8972L27.4532 27.7501ZM26.488 35.2621C26.27 35.3028 26.0663 35.2187 25.8769 35.0097C25.7475 34.9211 25.5972 34.7705 25.4259 34.5582C25.2546 34.3458 25.138 33.9728 25.0759 33.4392C25.0285 32.8841 25.0807 32.0566 25.2324 30.9567C25.2851 30.2325 25.3371 29.7058 25.3884 29.3766C25.4363 29.0293 25.4467 28.7829 25.4195 28.6376C25.3822 28.4378 25.3698 28.2709 25.3824 28.137C25.4097 27.9815 25.4115 27.8401 25.3878 27.713C25.4967 27.6926 25.5871 27.5724 25.6587 27.3522C25.7304 27.132 25.7703 26.8426 25.7785 26.4838C25.7934 26.1615 25.8112 25.9044 25.8318 25.7125C25.8671 25.4991 25.878 25.3561 25.8644 25.2834C25.9281 25.1212 25.9765 24.8771 26.0096 24.5513C26.0609 24.2222 26.1548 23.8192 26.2913 23.3426C26.3348 22.7705 26.3931 22.1768 26.4662 21.5616C26.5358 20.9282 26.614 20.3402 26.7006 19.7977C26.802 19.2335 26.8891 18.7943 26.962 18.4799C27.0566 17.8794 27.138 17.46 27.2063 17.2217C27.2711 16.9652 27.2423 16.8108 27.1197 16.7585C26.9756 16.6914 26.8696 16.4762 26.8017 16.1129C26.7486 15.7281 26.8601 15.3688 27.1361 15.0353C27.2918 14.7618 27.5156 14.5508 27.8074 14.4023C28.0959 14.2356 28.4399 14.1149 28.8396 14.0403C29.2392 13.9656 29.6604 13.9057 30.1031 13.8606C30.4335 13.8177 30.7803 13.7622 31.1436 13.6944C31.5251 13.6231 31.7612 13.579 31.8521 13.562C32.0291 13.6041 32.2442 13.6485 32.4973 13.6952C32.7504 13.7419 32.9763 13.7937 33.1749 13.8506C33.3883 13.886 33.5001 13.9309 33.5103 13.9854C33.5307 14.0944 33.5806 14.1602 33.66 14.183C33.7542 14.1842 33.8485 14.1854 33.9427 14.1866C34.0698 14.1628 34.3008 14.2419 34.6355 14.4237C34.9669 14.5874 35.3085 14.8056 35.6602 15.0782C36.0267 15.3293 36.3024 15.5974 36.4872 15.8825C36.6902 16.1641 36.8626 16.4327 37.0043 16.6882C37.1642 16.9403 37.2463 17.3292 37.2505 17.8548C37.2832 18.1306 37.2887 18.4116 37.267 18.6977C37.2634 18.9803 37.2338 19.1738 37.1781 19.2782C37.0826 19.3713 36.9997 19.4808 36.9292 19.6067C36.8588 19.7327 36.832 19.8411 36.849 19.9319C36.8626 20.0046 36.8239 20.1998 36.7328 20.5176C36.6384 20.8172 36.5162 21.169 36.3661 21.5731C36.2126 21.9589 36.0409 22.3482 35.8511 22.7408C35.6613 23.1335 35.476 23.4501 35.2954 23.6906C35.1135 24.0254 34.8829 24.3505 34.6034 24.6659C34.3421 24.9779 34.0996 25.2394 33.8758 25.4504C33.4443 25.7566 32.9383 26.0673 32.3581 26.3825C31.7959 26.6943 31.2452 26.9664 30.7058 27.1988C30.1631 27.413 29.7174 27.5432 29.3689 27.5895C28.8557 27.7606 28.5241 27.8978 28.3742 28.001C28.2209 28.086 28.1317 28.2625 28.1066 28.5304C28.0598 28.7835 28.0148 29.0457 27.9715 29.317C27.9464 29.5848 27.944 29.7733 27.9644 29.8823C27.9416 29.9617 27.8972 30.1768 27.8311 30.5275C27.7832 30.8749 27.7183 31.2818 27.6362 31.7483C27.5724 32.2114 27.5176 32.6728 27.4719 33.1325C27.4262 33.5923 27.3958 33.9833 27.3809 34.3057C27.3557 34.5736 27.2369 34.7932 27.0246 34.9644C26.8303 35.1323 26.6515 35.2315 26.488 35.2621ZM28.6568 25.4385C28.7431 25.4976 28.9809 25.4625 29.3704 25.3334C29.7598 25.2042 30.2157 24.978 30.7381 24.6549C31.0777 24.4598 31.4121 24.2375 31.7415 23.988C32.089 23.7351 32.415 23.4674 32.7194 23.1849C32.8773 23.0238 33.0392 22.8338 33.2051 22.6148C33.3675 22.3777 33.588 21.9981 33.8665 21.4761C33.904 21.3751 33.9626 21.1855 34.0422 20.9075C34.1366 20.6078 34.2163 20.3298 34.2811 20.0733C34.3971 19.7884 34.491 19.3855 34.5629 18.8645C34.6313 18.3253 34.5896 17.9007 34.4377 17.5907C34.2586 17.1354 34.004 16.7788 33.6738 16.5209C33.3403 16.2448 32.951 16.0732 32.5061 16.0059C32.0929 16.0079 31.7483 16.0253 31.4724 16.058C31.2147 16.0874 30.9366 16.1581 30.638 16.2703C30.3643 16.4155 30.1791 16.5817 30.0825 16.7689C30.0041 16.9527 29.9051 17.3284 29.7855 17.8959C29.7059 18.174 29.5904 18.5622 29.4391 19.0604C29.2844 19.5405 29.1677 20.0229 29.0891 20.5075C28.9861 21.7675 28.8669 22.7392 28.7314 23.4225C28.614 24.1024 28.5376 24.549 28.5023 24.7624C28.5578 24.9588 28.5759 25.1058 28.5565 25.2034C28.5338 25.2829 28.5672 25.3612 28.6568 25.4385Z" fill="black"/>
</svg>