<svg xmlns="http://www.w3.org/2000/svg" width="27" height="22" viewBox="0 0 27 22" fill="none">
<path d="M20.1667 7.00008V4.33341C20.1667 3.62617 19.8857 2.94789 19.3856 2.4478C18.8855 1.9477 18.2072 1.66675 17.5 1.66675H4.16667C3.45942 1.66675 2.78115 1.9477 2.28105 2.4478C1.78095 2.94789 1.5 3.62617 1.5 4.33341V12.3334C1.5 13.0407 1.78095 13.7189 2.28105 14.219C2.78115 14.7191 3.45942 15.0001 4.16667 15.0001H6.83333M9.5 7.00008H22.8333C24.3061 7.00008 25.5 8.19399 25.5 9.66675V17.6667C25.5 19.1395 24.3061 20.3334 22.8333 20.3334H9.5C8.02724 20.3334 6.83333 19.1395 6.83333 17.6667V9.66675C6.83333 8.19399 8.02724 7.00008 9.5 7.00008ZM18.8333 13.6667C18.8333 15.1395 17.6394 16.3334 16.1667 16.3334C14.6939 16.3334 13.5 15.1395 13.5 13.6667C13.5 12.194 14.6939 11.0001 16.1667 11.0001C17.6394 11.0001 18.8333 12.194 18.8333 13.6667Z" stroke="#5EAEAE" stroke-width="2" stroke-linecap="round" stroke-linejoin="round"/>
</svg>