<svg xmlns="http://www.w3.org/2000/svg" width="30" height="30" viewBox="0 0 30 30" fill="none">
<path d="M28.5 15C28.5 7.55587 22.4436 1.5 15 1.5C13.6472 1.5 12.3113 1.69969 11.0226 2.09569C10.1535 1.70475 9.20456 1.5 8.25 1.5C4.52794 1.5 1.5 4.52794 1.5 8.25C1.5 9.20456 1.70475 10.1535 2.09569 11.0226C1.69969 12.3113 1.5 13.6472 1.5 15C1.5 22.4441 7.55587 28.5 15 28.5C16.3528 28.5 17.6887 28.2998 18.9774 27.9043C19.8465 28.2953 20.796 28.5 21.75 28.5C25.4721 28.5 28.5 25.4721 28.5 21.75C28.5 20.796 28.2953 19.8471 27.9043 18.978C28.3003 17.6893 28.5 16.3534 28.5 15ZM25.6864 19.5664L25.7049 19.6029C26.0616 20.2605 26.25 21.003 26.25 21.75C26.25 24.2312 24.2312 26.25 21.75 26.25C21.0024 26.25 20.2605 26.0616 19.6035 25.7055C19.482 25.6397 19.3464 25.5969 19.2086 25.5789C19.1619 25.5728 19.1141 25.5694 19.0658 25.5694H19.0635H19.0596H19.0579H19.0568H19.0562C18.9229 25.5699 18.7946 25.5936 18.6759 25.6374C17.4913 26.0436 16.2544 26.25 15 26.25C8.79675 26.25 3.75 21.2033 3.75 15C3.75 13.7394 3.95812 12.4963 4.36931 11.3055C4.40081 11.2138 4.4205 11.1159 4.42781 11.0181C4.43006 10.9916 4.43119 10.9646 4.43119 10.9376V10.9354V10.9309V10.9286C4.43063 10.7509 4.38844 10.5827 4.31419 10.4336C4.31209 10.4296 4.30998 10.4255 4.30786 10.4214C4.30373 10.4134 4.29952 10.4052 4.29506 10.3971C3.93844 9.74006 3.75 8.99756 3.75 8.25C3.75 5.76881 5.76881 3.75 8.25 3.75C8.99756 3.75 9.74006 3.93844 10.3965 4.2945C10.5146 4.35863 10.6463 4.40081 10.7807 4.41937C10.8308 4.42669 10.8819 4.43006 10.9337 4.43062H10.9359H10.9382H10.9404H10.9416H10.9427C11.0766 4.43006 11.2048 4.40644 11.3235 4.36256C12.5093 3.95644 13.7462 3.75 15 3.75C21.2033 3.75 26.25 8.79675 26.25 15C26.25 16.2533 26.0447 17.4879 25.6391 18.6703C25.5947 18.7907 25.5699 18.9206 25.5694 19.0568V19.059V19.0613V19.0669V19.0691V19.0714C25.5699 19.2497 25.6121 19.4173 25.6864 19.5664Z" fill="black"/>
<path d="M28.5 15C28.5 7.55587 22.4436 1.5 15 1.5C13.6472 1.5 12.3113 1.69969 11.0226 2.09569C10.1535 1.70475 9.20456 1.5 8.25 1.5C4.52794 1.5 1.5 4.52794 1.5 8.25C1.5 9.20456 1.70475 10.1535 2.09569 11.0226C1.69969 12.3113 1.5 13.6472 1.5 15C1.5 22.4441 7.55587 28.5 15 28.5C16.3528 28.5 17.6887 28.2998 18.9774 27.9043C19.8465 28.2953 20.796 28.5 21.75 28.5C25.4721 28.5 28.5 25.4721 28.5 21.75C28.5 20.796 28.2953 19.8471 27.9043 18.978C28.3003 17.6893 28.5 16.3534 28.5 15ZM25.6864 19.5664L25.7049 19.6029C26.0616 20.2605 26.25 21.003 26.25 21.75C26.25 24.2312 24.2312 26.25 21.75 26.25C21.0024 26.25 20.2605 26.0616 19.6035 25.7055C19.482 25.6397 19.3464 25.5969 19.2086 25.5789C19.1619 25.5728 19.1141 25.5694 19.0658 25.5694H19.0635H19.0596H19.0579H19.0568H19.0562C18.9229 25.5699 18.7946 25.5936 18.6759 25.6374C17.4913 26.0436 16.2544 26.25 15 26.25C8.79675 26.25 3.75 21.2033 3.75 15C3.75 13.7394 3.95812 12.4963 4.36931 11.3055C4.40081 11.2138 4.4205 11.1159 4.42781 11.0181C4.43006 10.9916 4.43119 10.9646 4.43119 10.9376V10.9354V10.9309V10.9286C4.43063 10.7509 4.38844 10.5827 4.31419 10.4336C4.31209 10.4296 4.30998 10.4255 4.30786 10.4214C4.30373 10.4134 4.29952 10.4052 4.29506 10.3971C3.93844 9.74006 3.75 8.99756 3.75 8.25C3.75 5.76881 5.76881 3.75 8.25 3.75C8.99756 3.75 9.74006 3.93844 10.3965 4.2945C10.5146 4.35863 10.6463 4.40081 10.7807 4.41937C10.8308 4.42669 10.8819 4.43006 10.9337 4.43062H10.9359H10.9382H10.9404H10.9416H10.9427C11.0766 4.43006 11.2048 4.40644 11.3235 4.36256C12.5093 3.95644 13.7462 3.75 15 3.75C21.2033 3.75 26.25 8.79675 26.25 15C26.25 16.2533 26.0447 17.4879 25.6391 18.6703C25.5947 18.7907 25.5699 18.9206 25.5694 19.0568V19.059V19.0613V19.0669V19.0691V19.0714C25.5699 19.2497 25.6121 19.4173 25.6864 19.5664Z" stroke="black"/>
<path d="M15 10.5C16.2195 10.5 17.25 11.2729 17.25 12.1875C17.25 12.8085 17.754 13.3125 18.375 13.3125C18.996 13.3125 19.5 12.8085 19.5 12.1875C19.5 10.0163 17.4812 8.25 15 8.25C12.5188 8.25 10.5 10.0163 10.5 12.1875C10.5 14.3587 12.5188 16.125 15 16.125C16.2195 16.125 17.25 16.8979 17.25 17.8125C17.25 18.7271 16.2195 19.5 15 19.5C13.7805 19.5 12.75 18.7271 12.75 17.8125C12.75 17.1915 12.246 16.6875 11.625 16.6875C11.004 16.6875 10.5 17.1915 10.5 17.8125C10.5 19.9838 12.5188 21.75 15 21.75C17.4812 21.75 19.5 19.9838 19.5 17.8125C19.5 15.6413 17.4812 13.875 15 13.875C13.7805 13.875 12.75 13.1021 12.75 12.1875C12.75 11.2729 13.7805 10.5 15 10.5Z" fill="black"/>
<path d="M15 10.5C16.2195 10.5 17.25 11.2729 17.25 12.1875C17.25 12.8085 17.754 13.3125 18.375 13.3125C18.996 13.3125 19.5 12.8085 19.5 12.1875C19.5 10.0163 17.4812 8.25 15 8.25C12.5188 8.25 10.5 10.0163 10.5 12.1875C10.5 14.3587 12.5188 16.125 15 16.125C16.2195 16.125 17.25 16.8979 17.25 17.8125C17.25 18.7271 16.2195 19.5 15 19.5C13.7805 19.5 12.75 18.7271 12.75 17.8125C12.75 17.1915 12.246 16.6875 11.625 16.6875C11.004 16.6875 10.5 17.1915 10.5 17.8125C10.5 19.9838 12.5188 21.75 15 21.75C17.4812 21.75 19.5 19.9838 19.5 17.8125C19.5 15.6413 17.4812 13.875 15 13.875C13.7805 13.875 12.75 13.1021 12.75 12.1875C12.75 11.2729 13.7805 10.5 15 10.5Z" stroke="black"/>
</svg>