<svg xmlns="http://www.w3.org/2000/svg" width="26" height="26" viewBox="0 0 26 26" fill="none">
<path d="M12.1995 1.33158C12.6416 0.889474 13.3584 0.889475 13.8005 1.33158L17.0297 4.56077C17.4718 5.00287 17.4718 5.71966 17.0297 6.16177L13.8005 9.39096C13.3584 9.83306 12.6416 9.83306 12.1995 9.39096L8.97031 6.16177C8.52821 5.71966 8.52821 5.00287 8.97031 4.56077L12.1995 1.33158Z" stroke="black" stroke-width="2"/>
<path d="M19.8382 8.97031C20.2803 8.52821 20.9971 8.52821 21.4392 8.97031L24.6684 12.1995C25.1105 12.6416 25.1105 13.3584 24.6684 13.8005L21.4392 17.0297C20.9971 17.4718 20.2803 17.4718 19.8382 17.0297L16.609 13.8005C16.1669 13.3584 16.1669 12.6416 16.609 12.1995L19.8382 8.97031Z" stroke="black" stroke-width="2"/>
<path d="M4.56077 8.97031C5.00287 8.52821 5.71966 8.52821 6.16177 8.97031L9.39096 12.1995C9.83306 12.6416 9.83306 13.3584 9.39096 13.8005L6.16177 17.0297C5.71966 17.4718 5.00287 17.4718 4.56077 17.0297L1.33158 13.8005C0.889474 13.3584 0.889475 12.6416 1.33158 12.1995L4.56077 8.97031Z" stroke="black" stroke-width="2"/>
<path d="M12.1995 16.609C12.6416 16.1669 13.3584 16.1669 13.8005 16.609L17.0297 19.8382C17.4718 20.2803 17.4718 20.9971 17.0297 21.4392L13.8005 24.6684C13.3584 25.1105 12.6416 25.1105 12.1995 24.6684L8.97031 21.4392C8.52821 20.9971 8.52821 20.2803 8.97031 19.8382L12.1995 16.609Z" stroke="black" stroke-width="2"/>
</svg>